<svg width="14" height="14" viewBox="0 0 14 14" fill="none" xmlns="http://www.w3.org/2000/svg">
<path fill-rule="evenodd" clip-rule="evenodd" d="M4.06544 12.5598C4.0247 12.5192 3.99238 12.4709 3.97032 12.4178C3.94827 12.3646 3.93691 12.3076 3.93691 12.2501C3.93691 12.1925 3.94827 12.1355 3.97032 12.0824C3.99238 12.0292 4.0247 11.981 4.06544 11.9403L9.00657 7.00007L4.06544 2.05982C3.98329 1.97767 3.93714 1.86625 3.93714 1.75007C3.93714 1.6339 3.98329 1.52248 4.06544 1.44032C4.14759 1.35817 4.25901 1.31202 4.37519 1.31202C4.49137 1.31202 4.60279 1.35817 4.68494 1.44032L9.93494 6.69032C9.97569 6.73096 10.008 6.77924 10.0301 6.83239C10.0521 6.88555 10.0635 6.94253 10.0635 7.00007C10.0635 7.05762 10.0521 7.1146 10.0301 7.16775C10.008 7.2209 9.97569 7.26918 9.93494 7.30982L4.68494 12.5598C4.6443 12.6006 4.59603 12.6329 4.54287 12.6549C4.48972 12.677 4.43274 12.6884 4.37519 12.6884C4.31765 12.6884 4.26067 12.677 4.20751 12.6549C4.15436 12.6329 4.10608 12.6006 4.06544 12.5598Z" fill="#0D6EFD"/>
</svg>
