<svg width="20" height="20" viewBox="0 0 20 20" fill="none" xmlns="http://www.w3.org/2000/svg">
<circle cx="10" cy="10" r="10" transform="rotate(-90 10 10)" fill="#0D6EFD"/>
<path fill-rule="evenodd" clip-rule="evenodd" d="M5.63151 7.69421C5.66344 7.6622 5.70137 7.6368 5.74313 7.61947C5.7849 7.60214 5.82967 7.59322 5.87488 7.59322C5.9201 7.59322 5.96487 7.60214 6.00663 7.61947C6.04839 7.6368 6.08633 7.6622 6.11826 7.69421L9.99988 11.5765L13.8815 7.69421C13.9461 7.62967 14.0336 7.5934 14.1249 7.5934C14.2162 7.5934 14.3037 7.62967 14.3683 7.69421C14.4328 7.75876 14.4691 7.8463 14.4691 7.93759C14.4691 8.02887 14.4328 8.11642 14.3683 8.18096L10.2433 12.306C10.2113 12.338 10.1734 12.3634 10.1316 12.3807C10.0899 12.398 10.0451 12.407 9.99988 12.407C9.95467 12.407 9.9099 12.398 9.86813 12.3807C9.82637 12.3634 9.78844 12.338 9.75651 12.306L5.63151 8.18096C5.59949 8.14903 5.5741 8.1111 5.55677 8.06934C5.53944 8.02757 5.53052 7.9828 5.53052 7.93759C5.53052 7.89237 5.53944 7.8476 5.55677 7.80584C5.5741 7.76408 5.59949 7.72614 5.63151 7.69421Z" fill="white"/>
</svg>
