<svg width="32" height="32" viewBox="0 0 32 32" fill="none" xmlns="http://www.w3.org/2000/svg">
<circle cx="16" cy="16" r="16" transform="rotate(-90 16 16)" fill="#DC3545"/>
<path fill-rule="evenodd" clip-rule="evenodd" d="M22.9895 23.1559C22.9384 23.2071 22.8778 23.2478 22.8109 23.2755C22.7441 23.3032 22.6725 23.3175 22.6001 23.3175C22.5278 23.3175 22.4562 23.3032 22.3893 23.2755C22.3225 23.2478 22.2618 23.2071 22.2107 23.1559L16.0001 16.9442L9.78954 23.1559C9.68626 23.2592 9.54619 23.3172 9.40014 23.3172C9.25408 23.3172 9.11401 23.2592 9.01074 23.1559C8.90746 23.0526 8.84944 22.9126 8.84944 22.7665C8.84944 22.6205 8.90746 22.4804 9.01074 22.3771L15.6107 15.7771C15.6618 15.7259 15.7225 15.6852 15.7893 15.6575C15.8562 15.6298 15.9278 15.6155 16.0001 15.6155C16.0725 15.6155 16.1441 15.6298 16.2109 15.6575C16.2778 15.6852 16.3384 15.7259 16.3895 15.7771L22.9895 22.3771C23.0408 22.4282 23.0814 22.4889 23.1091 22.5557C23.1369 22.6225 23.1511 22.6942 23.1511 22.7665C23.1511 22.8389 23.1369 22.9105 23.1091 22.9773C23.0814 23.0441 23.0408 23.1048 22.9895 23.1559Z" fill="white"/>
<path fill-rule="evenodd" clip-rule="evenodd" d="M9.0107 9.11075C9.06179 9.05954 9.12249 9.0189 9.18931 8.99117C9.25613 8.96344 9.32776 8.94917 9.4001 8.94917C9.47245 8.94917 9.54408 8.96344 9.6109 8.99117C9.67772 9.0189 9.73841 9.05954 9.7895 9.11075L16.0001 15.3225L22.2107 9.11076C22.314 9.00748 22.4541 8.94946 22.6001 8.94946C22.7462 8.94946 22.8862 9.00748 22.9895 9.11076C23.0928 9.21403 23.1508 9.3541 23.1508 9.50016C23.1508 9.64621 23.0928 9.78628 22.9895 9.88956L16.3895 16.4896C16.3384 16.5408 16.2777 16.5814 16.2109 16.6091C16.1441 16.6369 16.0724 16.6511 16.0001 16.6511C15.9278 16.6511 15.8561 16.6369 15.7893 16.6091C15.7225 16.5814 15.6618 16.5408 15.6107 16.4896L9.0107 9.88956C8.95948 9.83847 8.91885 9.77777 8.89112 9.71095C8.86339 9.64413 8.84912 9.5725 8.84912 9.50015C8.84912 9.42781 8.86339 9.35618 8.89112 9.28936C8.91885 9.22254 8.95948 9.16185 9.0107 9.11075Z" fill="white"/>
</svg>
