<svg width="12" height="12" viewBox="0 0 12 12" fill="none" xmlns="http://www.w3.org/2000/svg">
<path fill-rule="evenodd" clip-rule="evenodd" d="M10.5618 1.63661C10.6154 1.69026 10.6515 1.75891 10.6653 1.83349C10.6791 1.90807 10.6699 1.98508 10.6391 2.05436L6.39631 11.6004C6.36667 11.6671 6.31817 11.7238 6.25677 11.7634C6.19538 11.8029 6.12376 11.8237 6.05071 11.8232C5.97767 11.8226 5.90638 11.8007 5.84559 11.7602C5.78481 11.7197 5.73718 11.6623 5.70856 11.5951L4.17781 8.02061L0.602561 6.48911C0.535604 6.46031 0.478492 6.41262 0.438209 6.35188C0.397926 6.29113 0.376218 6.21997 0.37574 6.14708C0.375263 6.07419 0.396037 6.00275 0.435521 5.94148C0.475005 5.88022 0.531487 5.83178 0.598061 5.80211L10.1441 1.55936C10.2132 1.52864 10.2901 1.51959 10.3645 1.53337C10.439 1.54716 10.5075 1.58315 10.5611 1.63661H10.5618Z" fill="white"/>
</svg>
