<svg width="598" height="598" viewBox="0 0 598 598" fill="none" xmlns="http://www.w3.org/2000/svg">
<path d="M208.721 166.271L209.159 166.028L208.916 165.591L190.752 132.887L190.51 132.451L190.073 132.693C146.645 156.747 112.403 194.503 92.6927 240.067C72.9825 285.631 68.913 336.439 81.1195 384.56C93.326 432.68 121.122 475.405 160.167 506.065C199.213 536.725 247.311 553.594 296.954 554.04C346.596 554.485 394.99 538.482 434.579 508.527C474.168 478.573 502.726 436.353 515.794 388.459C528.862 340.565 525.704 289.693 506.815 243.782C487.925 197.872 454.366 159.507 411.377 134.678L410.944 134.428L410.693 134.861L392.006 167.228L391.756 167.661L392.189 167.911C427.844 188.495 455.68 220.306 471.351 258.378C487.022 296.449 489.645 338.638 478.813 378.358C467.98 418.078 444.3 453.093 411.47 477.936C378.64 502.78 338.508 516.054 297.339 515.686C256.17 515.318 216.282 501.328 183.901 475.902C151.521 450.475 128.471 415.043 118.349 375.136C108.228 335.229 111.606 293.093 127.955 255.308C144.304 217.523 172.704 186.214 208.721 166.271Z" fill="white" stroke="white"/>
<path d="M279.812 299V299.5H280.312H317.688H318.188V299V37.375V36.875H317.688H280.312H279.812V37.375V299Z" fill="white" stroke="white"/>
</svg>
