<svg width="26" height="26" viewBox="0 0 26 26" fill="none" xmlns="http://www.w3.org/2000/svg">
<path d="M9.30662 7.64756L9.74461 7.40504L9.50151 6.96736L8.71176 5.54549L8.46927 5.1089L8.0324 5.35088C6.05181 6.4479 4.49017 8.16981 3.59126 10.2478C2.69235 12.3258 2.50676 14.643 3.06345 16.8376C3.62014 19.0322 4.88779 20.9807 6.66852 22.379C8.44924 23.7773 10.6428 24.5466 12.9068 24.5669C15.1708 24.5872 17.3779 23.8574 19.1834 22.4913C20.9889 21.1252 22.2913 19.1997 22.8873 17.0154C23.4833 14.8312 23.3393 12.5111 22.4778 10.4172C21.6163 8.32344 20.0858 6.57379 18.1252 5.44142L17.6922 5.19131L17.4422 5.62439L16.6297 7.03164L16.3796 7.46466L16.8127 7.71466C18.2714 8.55682 19.4102 9.85828 20.0514 11.4159C20.6925 12.9734 20.7998 14.6995 20.3566 16.3245C19.9134 17.9495 18.9446 19.3821 17.6015 20.3985C16.2583 21.4149 14.6165 21.9579 12.9322 21.9429C11.2478 21.9278 9.61593 21.3555 8.29117 20.3152C6.96641 19.275 6.02339 17.8254 5.60931 16.1927C5.19523 14.56 5.33342 12.8361 6.00229 11.2903C6.67116 9.7444 7.83307 8.4635 9.30662 7.64756Z" fill="white" stroke="white"/>
<path d="M11.6875 13V13.5H12.1875H13.8125H14.3125V13V1.625V1.125H13.8125H12.1875H11.6875V1.625V13Z" fill="white" stroke="white"/>
</svg>
